<mxfile host="app.diagrams.net" modified="2024-05-26T21:06:01.068Z" agent="Mozilla/5.0 (Windows NT 10.0; Win64; x64) AppleWebKit/537.36 (KHTML, like Gecko) Chrome/125.0.0.0 Safari/537.36" etag="94bI9lSuRS7eNaUHrEiu" version="24.4.8" type="device">
  <diagram name="Page-1" id="Mb7FjYXtk_njD1AJlHB6">
    <mxGraphModel dx="3827" dy="1591" grid="1" gridSize="10" guides="1" tooltips="1" connect="1" arrows="1" fold="1" page="1" pageScale="1" pageWidth="827" pageHeight="1169" math="0" shadow="0">
      <root>
        <mxCell id="0" />
        <mxCell id="1" parent="0" />
        <mxCell id="Q6g7W3NUzH-OJxWjwVix-1" value="" style="ellipse;whiteSpace=wrap;html=1;" parent="1" vertex="1">
          <mxGeometry x="300" y="30" width="120" height="80" as="geometry" />
        </mxCell>
        <mxCell id="Q6g7W3NUzH-OJxWjwVix-2" value="&lt;font style=&quot;font-size: 14px;&quot;&gt;Start&lt;/font&gt;" style="text;html=1;align=center;verticalAlign=middle;whiteSpace=wrap;rounded=0;" parent="1" vertex="1">
          <mxGeometry x="330" y="55" width="60" height="30" as="geometry" />
        </mxCell>
        <mxCell id="Q6g7W3NUzH-OJxWjwVix-3" value="" style="endArrow=classic;html=1;rounded=0;exitX=0.5;exitY=1;exitDx=0;exitDy=0;" parent="1" source="Q6g7W3NUzH-OJxWjwVix-1" target="Q6g7W3NUzH-OJxWjwVix-4" edge="1">
          <mxGeometry width="50" height="50" relative="1" as="geometry">
            <mxPoint x="540" y="400" as="sourcePoint" />
            <mxPoint x="360" y="210" as="targetPoint" />
          </mxGeometry>
        </mxCell>
        <mxCell id="Q6g7W3NUzH-OJxWjwVix-7" value="" style="edgeStyle=orthogonalEdgeStyle;rounded=0;orthogonalLoop=1;jettySize=auto;html=1;" parent="1" source="Q6g7W3NUzH-OJxWjwVix-4" target="Q6g7W3NUzH-OJxWjwVix-6" edge="1">
          <mxGeometry relative="1" as="geometry" />
        </mxCell>
        <mxCell id="Q6g7W3NUzH-OJxWjwVix-13" value="" style="edgeStyle=orthogonalEdgeStyle;rounded=0;orthogonalLoop=1;jettySize=auto;html=1;" parent="1" source="Q6g7W3NUzH-OJxWjwVix-4" target="Q6g7W3NUzH-OJxWjwVix-12" edge="1">
          <mxGeometry relative="1" as="geometry" />
        </mxCell>
        <mxCell id="Q6g7W3NUzH-OJxWjwVix-4" value="" style="rhombus;whiteSpace=wrap;html=1;" parent="1" vertex="1">
          <mxGeometry x="235" y="145" width="250" height="80" as="geometry" />
        </mxCell>
        <mxCell id="Q6g7W3NUzH-OJxWjwVix-5" value="allItems == null" style="text;html=1;align=center;verticalAlign=middle;whiteSpace=wrap;rounded=0;" parent="1" vertex="1">
          <mxGeometry x="310" y="170" width="100" height="30" as="geometry" />
        </mxCell>
        <mxCell id="Q6g7W3NUzH-OJxWjwVix-17" style="edgeStyle=orthogonalEdgeStyle;rounded=0;orthogonalLoop=1;jettySize=auto;html=1;entryX=1;entryY=0.5;entryDx=0;entryDy=0;" parent="1" source="Q6g7W3NUzH-OJxWjwVix-6" target="Q6g7W3NUzH-OJxWjwVix-1" edge="1">
          <mxGeometry relative="1" as="geometry">
            <Array as="points">
              <mxPoint x="710" y="70" />
            </Array>
          </mxGeometry>
        </mxCell>
        <mxCell id="Q6g7W3NUzH-OJxWjwVix-6" value="Throw exception&lt;div&gt;&lt;span style=&quot;background-color: initial;&quot;&gt;(&lt;/span&gt;&lt;span style=&quot;background-color: initial;&quot;&gt;&quot;allItems list can&#39;t be null&quot;)&lt;/span&gt;&lt;/div&gt;" style="ellipse;whiteSpace=wrap;html=1;" parent="1" vertex="1">
          <mxGeometry x="620" y="145" width="170" height="80" as="geometry" />
        </mxCell>
        <mxCell id="Q6g7W3NUzH-OJxWjwVix-8" value="&lt;b&gt;True&lt;/b&gt;" style="text;html=1;align=center;verticalAlign=middle;resizable=0;points=[];autosize=1;strokeColor=none;fillColor=none;" parent="1" vertex="1">
          <mxGeometry x="520" y="160" width="50" height="30" as="geometry" />
        </mxCell>
        <mxCell id="Q6g7W3NUzH-OJxWjwVix-20" value="" style="edgeStyle=orthogonalEdgeStyle;rounded=0;orthogonalLoop=1;jettySize=auto;html=1;" parent="1" source="Q6g7W3NUzH-OJxWjwVix-12" target="Q6g7W3NUzH-OJxWjwVix-19" edge="1">
          <mxGeometry relative="1" as="geometry" />
        </mxCell>
        <mxCell id="Q6g7W3NUzH-OJxWjwVix-12" value="Item = allItems.get(i)" style="ellipse;whiteSpace=wrap;html=1;" parent="1" vertex="1">
          <mxGeometry x="-30" y="240" width="140" height="80" as="geometry" />
        </mxCell>
        <mxCell id="Q6g7W3NUzH-OJxWjwVix-14" value="&lt;b&gt;False&lt;/b&gt;" style="text;html=1;align=center;verticalAlign=middle;resizable=0;points=[];autosize=1;strokeColor=none;fillColor=none;" parent="1" vertex="1">
          <mxGeometry x="110" y="150" width="50" height="30" as="geometry" />
        </mxCell>
        <mxCell id="Q6g7W3NUzH-OJxWjwVix-22" value="" style="edgeStyle=orthogonalEdgeStyle;rounded=0;orthogonalLoop=1;jettySize=auto;html=1;" parent="1" source="Q6g7W3NUzH-OJxWjwVix-19" target="Q6g7W3NUzH-OJxWjwVix-21" edge="1">
          <mxGeometry relative="1" as="geometry" />
        </mxCell>
        <mxCell id="Q6g7W3NUzH-OJxWjwVix-29" value="" style="edgeStyle=orthogonalEdgeStyle;rounded=0;orthogonalLoop=1;jettySize=auto;html=1;entryX=0;entryY=0.5;entryDx=0;entryDy=0;" parent="1" source="Q6g7W3NUzH-OJxWjwVix-19" target="Q6g7W3NUzH-OJxWjwVix-31" edge="1">
          <mxGeometry relative="1" as="geometry">
            <mxPoint x="40" y="730" as="targetPoint" />
            <Array as="points">
              <mxPoint x="41" y="730" />
              <mxPoint x="70" y="730" />
            </Array>
          </mxGeometry>
        </mxCell>
        <mxCell id="Q6g7W3NUzH-OJxWjwVix-19" value="&lt;pre style=&quot;text-align: start; overflow-wrap: break-word; text-wrap: wrap;&quot;&gt;[item.name || items.name.length()] == 0 &lt;/pre&gt;" style="rhombus;whiteSpace=wrap;html=1;" parent="1" vertex="1">
          <mxGeometry x="-157.5" y="485" width="395" height="100" as="geometry" />
        </mxCell>
        <mxCell id="Q6g7W3NUzH-OJxWjwVix-33" style="edgeStyle=orthogonalEdgeStyle;rounded=0;orthogonalLoop=1;jettySize=auto;html=1;entryX=0.5;entryY=0;entryDx=0;entryDy=0;" parent="1" source="Q6g7W3NUzH-OJxWjwVix-21" target="Q6g7W3NUzH-OJxWjwVix-31" edge="1">
          <mxGeometry relative="1" as="geometry" />
        </mxCell>
        <mxCell id="Q6g7W3NUzH-OJxWjwVix-21" value="item.setname == &quot;null&quot;" style="ellipse;whiteSpace=wrap;html=1;" parent="1" vertex="1">
          <mxGeometry x="541" y="495" width="135" height="80" as="geometry" />
        </mxCell>
        <mxCell id="Q6g7W3NUzH-OJxWjwVix-25" value="&lt;b&gt;True&lt;/b&gt;" style="text;html=1;align=center;verticalAlign=middle;resizable=0;points=[];autosize=1;strokeColor=none;fillColor=none;" parent="1" vertex="1">
          <mxGeometry x="330" y="500" width="50" height="30" as="geometry" />
        </mxCell>
        <mxCell id="Q6g7W3NUzH-OJxWjwVix-30" value="&lt;b&gt;False&lt;/b&gt;" style="text;html=1;align=center;verticalAlign=middle;resizable=0;points=[];autosize=1;strokeColor=none;fillColor=none;" parent="1" vertex="1">
          <mxGeometry x="170" y="690" width="50" height="30" as="geometry" />
        </mxCell>
        <mxCell id="Q6g7W3NUzH-OJxWjwVix-35" value="" style="edgeStyle=orthogonalEdgeStyle;rounded=0;orthogonalLoop=1;jettySize=auto;html=1;" parent="1" source="Q6g7W3NUzH-OJxWjwVix-31" target="Q6g7W3NUzH-OJxWjwVix-34" edge="1">
          <mxGeometry relative="1" as="geometry" />
        </mxCell>
        <mxCell id="Q6g7W3NUzH-OJxWjwVix-71" style="edgeStyle=orthogonalEdgeStyle;rounded=0;orthogonalLoop=1;jettySize=auto;html=1;" parent="1" source="Q6g7W3NUzH-OJxWjwVix-31" target="Q6g7W3NUzH-OJxWjwVix-46" edge="1">
          <mxGeometry relative="1" as="geometry" />
        </mxCell>
        <mxCell id="Q6g7W3NUzH-OJxWjwVix-31" value="items.getBarcode != null" style="rhombus;whiteSpace=wrap;html=1;" parent="1" vertex="1">
          <mxGeometry x="506.75" y="690" width="205" height="80" as="geometry" />
        </mxCell>
        <mxCell id="Q6g7W3NUzH-OJxWjwVix-41" value="x" style="edgeStyle=orthogonalEdgeStyle;rounded=0;orthogonalLoop=1;jettySize=auto;html=1;" parent="1" source="Q6g7W3NUzH-OJxWjwVix-34" target="Q6g7W3NUzH-OJxWjwVix-40" edge="1">
          <mxGeometry relative="1" as="geometry" />
        </mxCell>
        <mxCell id="Q6g7W3NUzH-OJxWjwVix-34" value="items.getbarcode.tocharArray()" style="ellipse;whiteSpace=wrap;html=1;" parent="1" vertex="1">
          <mxGeometry x="510.5" y="890" width="197.5" height="80" as="geometry" />
        </mxCell>
        <mxCell id="Q6g7W3NUzH-OJxWjwVix-37" value="&lt;b&gt;True&lt;/b&gt;" style="text;html=1;align=center;verticalAlign=middle;resizable=0;points=[];autosize=1;strokeColor=none;fillColor=none;" parent="1" vertex="1">
          <mxGeometry x="550" y="830" width="50" height="30" as="geometry" />
        </mxCell>
        <mxCell id="Q6g7W3NUzH-OJxWjwVix-44" style="edgeStyle=orthogonalEdgeStyle;rounded=0;orthogonalLoop=1;jettySize=auto;html=1;entryX=1;entryY=0.5;entryDx=0;entryDy=0;exitX=1;exitY=0.5;exitDx=0;exitDy=0;" parent="1" source="Q6g7W3NUzH-OJxWjwVix-38" target="Q6g7W3NUzH-OJxWjwVix-46" edge="1">
          <mxGeometry relative="1" as="geometry">
            <mxPoint x="1300" y="70" as="targetPoint" />
            <mxPoint x="1160" y="1110" as="sourcePoint" />
            <Array as="points">
              <mxPoint x="1261" y="1110" />
              <mxPoint x="1261" y="120" />
              <mxPoint x="1260" y="70" />
            </Array>
          </mxGeometry>
        </mxCell>
        <mxCell id="Q6g7W3NUzH-OJxWjwVix-49" style="edgeStyle=orthogonalEdgeStyle;rounded=0;orthogonalLoop=1;jettySize=auto;html=1;entryX=1;entryY=0.5;entryDx=0;entryDy=0;exitX=0.5;exitY=1;exitDx=0;exitDy=0;" parent="1" source="Q6g7W3NUzH-OJxWjwVix-38" target="Q6g7W3NUzH-OJxWjwVix-51" edge="1">
          <mxGeometry relative="1" as="geometry">
            <mxPoint x="930" y="1390" as="targetPoint" />
          </mxGeometry>
        </mxCell>
        <mxCell id="Q6g7W3NUzH-OJxWjwVix-38" value="allowed.indexOf(c) == -1" style="rhombus;whiteSpace=wrap;html=1;" parent="1" vertex="1">
          <mxGeometry x="834.69" y="1070" width="235.31" height="80" as="geometry" />
        </mxCell>
        <mxCell id="Q6g7W3NUzH-OJxWjwVix-42" style="edgeStyle=orthogonalEdgeStyle;rounded=0;orthogonalLoop=1;jettySize=auto;html=1;" parent="1" source="Q6g7W3NUzH-OJxWjwVix-40" target="Q6g7W3NUzH-OJxWjwVix-38" edge="1">
          <mxGeometry relative="1" as="geometry" />
        </mxCell>
        <mxCell id="Q6g7W3NUzH-OJxWjwVix-40" value="c = item.getBarcode().charAt" style="ellipse;whiteSpace=wrap;html=1;" parent="1" vertex="1">
          <mxGeometry x="872.35" y="890" width="160" height="80" as="geometry" />
        </mxCell>
        <mxCell id="Q6g7W3NUzH-OJxWjwVix-47" style="edgeStyle=orthogonalEdgeStyle;rounded=0;orthogonalLoop=1;jettySize=auto;html=1;entryX=1;entryY=0.5;entryDx=0;entryDy=0;" parent="1" source="Q6g7W3NUzH-OJxWjwVix-46" target="Q6g7W3NUzH-OJxWjwVix-1" edge="1">
          <mxGeometry relative="1" as="geometry" />
        </mxCell>
        <mxCell id="Q6g7W3NUzH-OJxWjwVix-46" value="Throw Exception" style="ellipse;whiteSpace=wrap;html=1;" parent="1" vertex="1">
          <mxGeometry x="1130" y="30" width="80" height="80" as="geometry" />
        </mxCell>
        <mxCell id="Q6g7W3NUzH-OJxWjwVix-48" value="&lt;b&gt;True&lt;/b&gt;" style="text;html=1;align=center;verticalAlign=middle;resizable=0;points=[];autosize=1;strokeColor=none;fillColor=none;" parent="1" vertex="1">
          <mxGeometry x="1270" y="455" width="50" height="30" as="geometry" />
        </mxCell>
        <mxCell id="Q6g7W3NUzH-OJxWjwVix-56" value="" style="edgeStyle=orthogonalEdgeStyle;rounded=0;orthogonalLoop=1;jettySize=auto;html=1;" parent="1" source="Q6g7W3NUzH-OJxWjwVix-51" target="Q6g7W3NUzH-OJxWjwVix-55" edge="1">
          <mxGeometry relative="1" as="geometry" />
        </mxCell>
        <mxCell id="Q6g7W3NUzH-OJxWjwVix-59" value="" style="edgeStyle=orthogonalEdgeStyle;rounded=0;orthogonalLoop=1;jettySize=auto;html=1;" parent="1" source="Q6g7W3NUzH-OJxWjwVix-51" target="Q6g7W3NUzH-OJxWjwVix-58" edge="1">
          <mxGeometry relative="1" as="geometry" />
        </mxCell>
        <mxCell id="Q6g7W3NUzH-OJxWjwVix-51" value="item.getDiscount() &amp;gt; 0" style="rhombus;whiteSpace=wrap;html=1;" parent="1" vertex="1">
          <mxGeometry x="660" y="1350" width="190" height="80" as="geometry" />
        </mxCell>
        <mxCell id="Q6g7W3NUzH-OJxWjwVix-53" value="&lt;b&gt;False&lt;/b&gt;" style="text;html=1;align=center;verticalAlign=middle;resizable=0;points=[];autosize=1;strokeColor=none;fillColor=none;" parent="1" vertex="1">
          <mxGeometry x="900" y="1194" width="50" height="30" as="geometry" />
        </mxCell>
        <mxCell id="Q6g7W3NUzH-OJxWjwVix-76" value="" style="edgeStyle=orthogonalEdgeStyle;rounded=0;orthogonalLoop=1;jettySize=auto;html=1;" parent="1" source="Q6g7W3NUzH-OJxWjwVix-55" target="Q6g7W3NUzH-OJxWjwVix-74" edge="1">
          <mxGeometry relative="1" as="geometry" />
        </mxCell>
        <mxCell id="Q6g7W3NUzH-OJxWjwVix-55" value="sum += item.getPrice()*item.getDiscount()" style="ellipse;whiteSpace=wrap;html=1;" parent="1" vertex="1">
          <mxGeometry x="347.5" y="1350" width="185" height="80" as="geometry" />
        </mxCell>
        <mxCell id="Q6g7W3NUzH-OJxWjwVix-75" value="" style="edgeStyle=orthogonalEdgeStyle;rounded=0;orthogonalLoop=1;jettySize=auto;html=1;" parent="1" source="Q6g7W3NUzH-OJxWjwVix-58" target="Q6g7W3NUzH-OJxWjwVix-74" edge="1">
          <mxGeometry relative="1" as="geometry" />
        </mxCell>
        <mxCell id="Q6g7W3NUzH-OJxWjwVix-58" value="sum+=&lt;div&gt;item.getPrice()&lt;/div&gt;" style="ellipse;whiteSpace=wrap;html=1;" parent="1" vertex="1">
          <mxGeometry x="708" y="1169" width="95" height="80" as="geometry" />
        </mxCell>
        <mxCell id="Q6g7W3NUzH-OJxWjwVix-69" value="&lt;b&gt;True&lt;/b&gt;" style="text;html=1;align=center;verticalAlign=middle;resizable=0;points=[];autosize=1;strokeColor=none;fillColor=none;" parent="1" vertex="1">
          <mxGeometry x="600" y="1360" width="50" height="30" as="geometry" />
        </mxCell>
        <mxCell id="Q6g7W3NUzH-OJxWjwVix-70" value="&lt;b&gt;False&lt;/b&gt;" style="text;html=1;align=center;verticalAlign=middle;resizable=0;points=[];autosize=1;strokeColor=none;fillColor=none;" parent="1" vertex="1">
          <mxGeometry x="715" y="1288" width="50" height="30" as="geometry" />
        </mxCell>
        <mxCell id="Q6g7W3NUzH-OJxWjwVix-72" value="&lt;b&gt;False&lt;/b&gt;" style="text;html=1;align=center;verticalAlign=middle;resizable=0;points=[];autosize=1;strokeColor=none;fillColor=none;" parent="1" vertex="1">
          <mxGeometry x="1115" y="418" width="50" height="30" as="geometry" />
        </mxCell>
        <mxCell id="Q6g7W3NUzH-OJxWjwVix-73" value="&lt;b&gt;False&lt;/b&gt;" style="text;html=1;align=center;verticalAlign=middle;resizable=0;points=[];autosize=1;strokeColor=none;fillColor=none;" parent="1" vertex="1">
          <mxGeometry x="895" y="728" width="50" height="30" as="geometry" />
        </mxCell>
        <mxCell id="Q6g7W3NUzH-OJxWjwVix-78" value="" style="edgeStyle=orthogonalEdgeStyle;rounded=0;orthogonalLoop=1;jettySize=auto;html=1;" parent="1" source="Q6g7W3NUzH-OJxWjwVix-74" target="Q6g7W3NUzH-OJxWjwVix-77" edge="1">
          <mxGeometry relative="1" as="geometry" />
        </mxCell>
        <mxCell id="Q6g7W3NUzH-OJxWjwVix-74" value="sum" style="ellipse;whiteSpace=wrap;html=1;" parent="1" vertex="1">
          <mxGeometry x="400" y="1169" width="80" height="80" as="geometry" />
        </mxCell>
        <mxCell id="Q6g7W3NUzH-OJxWjwVix-80" value="" style="edgeStyle=orthogonalEdgeStyle;rounded=0;orthogonalLoop=1;jettySize=auto;html=1;" parent="1" source="Q6g7W3NUzH-OJxWjwVix-77" target="Q6g7W3NUzH-OJxWjwVix-79" edge="1">
          <mxGeometry relative="1" as="geometry" />
        </mxCell>
        <mxCell id="Q6g7W3NUzH-OJxWjwVix-77" value="item.getprice &amp;gt; 300 &amp;amp;&amp;amp; item.getDiscound &amp;gt; 0 &amp;amp;&amp;amp; getBarcode().charAt(0) == &#39;0&#39;" style="rhombus;whiteSpace=wrap;html=1;" parent="1" vertex="1">
          <mxGeometry x="-75" y="1138.25" width="310" height="141.5" as="geometry" />
        </mxCell>
        <mxCell id="Q6g7W3NUzH-OJxWjwVix-88" value="" style="edgeStyle=orthogonalEdgeStyle;rounded=0;orthogonalLoop=1;jettySize=auto;html=1;" parent="1" source="Q6g7W3NUzH-OJxWjwVix-79" target="Q6g7W3NUzH-OJxWjwVix-87" edge="1">
          <mxGeometry relative="1" as="geometry" />
        </mxCell>
        <mxCell id="Q6g7W3NUzH-OJxWjwVix-79" value="sum = sum - 30" style="ellipse;whiteSpace=wrap;html=1;" parent="1" vertex="1">
          <mxGeometry x="30" y="947.5" width="100" height="80" as="geometry" />
        </mxCell>
        <mxCell id="Q6g7W3NUzH-OJxWjwVix-90" value="" style="edgeStyle=orthogonalEdgeStyle;rounded=0;orthogonalLoop=1;jettySize=auto;html=1;" parent="1" source="Q6g7W3NUzH-OJxWjwVix-87" target="Q6g7W3NUzH-OJxWjwVix-89" edge="1">
          <mxGeometry relative="1" as="geometry" />
        </mxCell>
        <mxCell id="Q6g7W3NUzH-OJxWjwVix-92" value="" style="edgeStyle=orthogonalEdgeStyle;rounded=0;orthogonalLoop=1;jettySize=auto;html=1;" parent="1" source="Q6g7W3NUzH-OJxWjwVix-87" target="Q6g7W3NUzH-OJxWjwVix-91" edge="1">
          <mxGeometry relative="1" as="geometry" />
        </mxCell>
        <mxCell id="Q6g7W3NUzH-OJxWjwVix-87" value="sum &amp;lt;= payment" style="rhombus;whiteSpace=wrap;html=1;" parent="1" vertex="1">
          <mxGeometry x="-200" y="947.5" width="100" height="80" as="geometry" />
        </mxCell>
        <mxCell id="Q6g7W3NUzH-OJxWjwVix-89" value="return True" style="ellipse;whiteSpace=wrap;html=1;" parent="1" vertex="1">
          <mxGeometry x="-190" y="787.5" width="80" height="80" as="geometry" />
        </mxCell>
        <mxCell id="Q6g7W3NUzH-OJxWjwVix-91" value="return False" style="ellipse;whiteSpace=wrap;html=1;" parent="1" vertex="1">
          <mxGeometry x="-370" y="947.5" width="80" height="80" as="geometry" />
        </mxCell>
        <mxCell id="Q6g7W3NUzH-OJxWjwVix-93" value="&lt;b&gt;True&lt;/b&gt;" style="text;html=1;align=center;verticalAlign=middle;resizable=0;points=[];autosize=1;strokeColor=none;fillColor=none;" parent="1" vertex="1">
          <mxGeometry x="-195" y="898" width="50" height="30" as="geometry" />
        </mxCell>
        <mxCell id="Q6g7W3NUzH-OJxWjwVix-94" value="&lt;b&gt;False&lt;/b&gt;" style="text;html=1;align=center;verticalAlign=middle;resizable=0;points=[];autosize=1;strokeColor=none;fillColor=none;" parent="1" vertex="1">
          <mxGeometry x="-265" y="958" width="50" height="30" as="geometry" />
        </mxCell>
        <mxCell id="jrYZP9la8m962VQnrpZJ-1" value="&lt;b&gt;True&lt;/b&gt;" style="text;html=1;align=center;verticalAlign=middle;resizable=0;points=[];autosize=1;strokeColor=none;fillColor=none;" vertex="1" parent="1">
          <mxGeometry x="80" y="1070" width="50" height="30" as="geometry" />
        </mxCell>
      </root>
    </mxGraphModel>
  </diagram>
</mxfile>
